<svg width="20" height="19" viewBox="0 0 20 19" fill="none" xmlns="http://www.w3.org/2000/svg">
<path fill-rule="evenodd" clip-rule="evenodd" d="M3.12695 5.16195C3.12695 4.75054 3.46856 4.41702 3.88994 4.41702H16.0978C16.5192 4.41702 16.8608 4.75054 16.8608 5.16195C16.8608 5.57337 16.5192 5.90689 16.0978 5.90689H3.88994C3.46856 5.90689 3.12695 5.57337 3.12695 5.16195Z" fill="black"/>
<path fill-rule="evenodd" clip-rule="evenodd" d="M3.12695 9.63159C3.12695 9.22017 3.46856 8.88665 3.88994 8.88665H16.0978C16.5192 8.88665 16.8608 9.22017 16.8608 9.63159C16.8608 10.043 16.5192 10.3765 16.0978 10.3765H3.88994C3.46856 10.3765 3.12695 10.043 3.12695 9.63159Z" fill="black"/>
<path fill-rule="evenodd" clip-rule="evenodd" d="M3.12695 14.1012C3.12695 13.6898 3.46856 13.3563 3.88994 13.3563H16.0978C16.5192 13.3563 16.8608 13.6898 16.8608 14.1012C16.8608 14.5126 16.5192 14.8462 16.0978 14.8462H3.88994C3.46856 14.8462 3.12695 14.5126 3.12695 14.1012Z" fill="black"/>
</svg>
