<svg width="20" height="19" viewBox="0 0 20 19" fill="none" xmlns="http://www.w3.org/2000/svg">
<g clip-path="url(#clip0_18_765)">
<path d="M8.51301 7.39677C8.09162 7.39677 7.75001 7.73029 7.75001 8.14171C7.75001 8.55313 8.09162 8.88665 8.51301 8.88665H11.565C11.9864 8.88665 12.328 8.55313 12.328 8.14171C12.328 7.73029 11.9864 7.39677 11.565 7.39677H8.51301Z" fill="black"/>
<path fill-rule="evenodd" clip-rule="evenodd" d="M5.46104 2.1822C4.61826 2.1822 3.93506 2.84924 3.93506 3.67208V16.336C3.93506 16.6151 4.09479 16.8707 4.34892 16.9984C4.60305 17.1261 4.90896 17.1044 5.14153 16.9422L10.039 13.5268L14.9364 16.9422C15.169 17.1044 15.4749 17.1261 15.7291 16.9984C15.9832 16.8707 16.1429 16.6151 16.1429 16.336V3.67208C16.1429 2.84924 15.4597 2.1822 14.6169 2.1822H5.46104ZM5.46104 3.67208L14.6169 3.67208V14.8885L10.4825 12.0052C10.2172 11.8202 9.8608 11.8202 9.59551 12.0052L5.46104 14.8885V3.67208Z" fill="black"/>
</g>
<defs>
<clipPath id="clip0_18_765">
<rect width="15.2598" height="14.8988" fill="white" transform="translate(2.40918 2.1822)"/>
</clipPath>
</defs>
</svg>
