<svg width="20" height="19" viewBox="0 0 20 19" fill="none" xmlns="http://www.w3.org/2000/svg">
<g clip-path="url(#clip0_18_766)">
<path fill-rule="evenodd" clip-rule="evenodd" d="M9.71112 2.27787C9.94338 2.15031 10.227 2.15031 10.4592 2.27787L16.5632 5.63009C16.8034 5.76204 16.9521 6.01024 16.9521 6.27936V10.0041C16.9521 10.4155 16.6105 10.749 16.1891 10.749C15.7677 10.749 15.4261 10.4155 15.4261 10.0041V7.5531L10.8482 10.0673V16.336C10.8482 16.6007 10.7044 16.8455 10.4704 16.9791C10.2364 17.1127 9.94737 17.1151 9.71112 16.9853L3.60719 13.6331C3.36694 13.5011 3.21826 13.2529 3.21826 12.9838V6.27936C3.21826 6.01024 3.36694 5.76204 3.60719 5.63009L9.71112 2.27787ZM10.0852 8.77689L14.6328 6.27936L10.0852 3.78184L5.53755 6.27936L10.0852 8.77689ZM4.74424 7.5531V12.5481L9.32219 15.0623V10.0673L4.74424 7.5531ZM14.2816 12.6113C13.6496 12.6113 13.1371 13.1116 13.1371 13.7288C13.1371 14.3459 13.6496 14.8462 14.2816 14.8462C14.9137 14.8462 15.4261 14.3459 15.4261 13.7288C15.4261 13.1116 14.9137 12.6113 14.2816 12.6113ZM11.6112 13.7288C11.6112 12.2888 12.8068 11.1215 14.2816 11.1215C15.7565 11.1215 16.9521 12.2888 16.9521 13.7288C16.9521 14.1778 16.8358 14.6003 16.6311 14.9692L17.4916 15.8093C17.7896 16.1002 17.7896 16.5719 17.4916 16.8628C17.1937 17.1537 16.7106 17.1537 16.4126 16.8628L15.5521 16.0227C15.1743 16.2225 14.7415 16.336 14.2816 16.336C12.8068 16.336 11.6112 15.1687 11.6112 13.7288Z" fill="black"/>
</g>
<defs>
<clipPath id="clip0_18_766">
<rect width="15.2598" height="14.8988" fill="white" transform="translate(2.45508 2.1822)"/>
</clipPath>
</defs>
</svg>
