<svg width="34" height="34" viewBox="0 0 34 34" fill="none" xmlns="http://www.w3.org/2000/svg">
<path opacity="0.3" d="M11.1306 15.2673L13.8162 7.53439C14.0339 6.9076 14.8959 6.9076 15.1135 7.53439L17.7992 15.2673C17.8686 15.4673 18.0217 15.6247 18.2162 15.6961L25.7358 18.4579C26.3454 18.6817 26.3454 19.5681 25.7358 19.792L18.2162 22.5538C18.0217 22.6251 17.8686 22.7825 17.7992 22.9826L15.1135 30.7155C14.8959 31.3423 14.0339 31.3423 13.8162 30.7155L11.1306 22.9826C11.0612 22.7825 10.9081 22.6251 10.7136 22.5538L3.19395 19.792C2.58444 19.5681 2.58444 18.6817 3.19395 18.4579L10.7136 15.6961C10.9081 15.6247 11.0612 15.4673 11.1306 15.2673Z" fill="white"/>
<path fill-rule="evenodd" clip-rule="evenodd" d="M22.7306 1.0625C23.3012 1.0625 23.7638 1.5382 23.7638 2.125V4.60417H26.1746C26.7452 4.60417 27.2078 5.07987 27.2078 5.66667C27.2078 6.25346 26.7452 6.72917 26.1746 6.72917H23.7638V9.20833C23.7638 9.79513 23.3012 10.2708 22.7306 10.2708C22.16 10.2708 21.6974 9.79513 21.6974 9.20833V6.72917H19.2866C18.716 6.72917 18.2534 6.25346 18.2534 5.66667C18.2534 5.07987 18.716 4.60417 19.2866 4.60417H21.6974V2.125C21.6974 1.5382 22.16 1.0625 22.7306 1.0625ZM29.2742 9.20833C29.2742 8.62154 28.8116 8.14583 28.241 8.14583C27.6704 8.14583 27.2078 8.62154 27.2078 9.20833V10.2708H26.1746C25.604 10.2708 25.1414 10.7465 25.1414 11.3333C25.1414 11.9201 25.604 12.3958 26.1746 12.3958H27.2078V13.4583C27.2078 14.0451 27.6704 14.5208 28.241 14.5208C28.8116 14.5208 29.2742 14.0451 29.2742 13.4583V12.3958H30.3074C30.878 12.3958 31.3406 11.9201 31.3406 11.3333C31.3406 10.7465 30.878 10.2708 30.3074 10.2708H29.2742V9.20833ZM12.1036 15.6247L14.4649 8.82566L16.8262 15.6247C16.9999 16.1246 17.3824 16.5182 17.8687 16.6967L24.4803 19.125L17.8687 21.5532C17.3824 21.7318 16.9999 22.1252 16.8262 22.6253L14.4649 29.4243L12.1036 22.6253C11.93 22.1252 11.5473 21.7318 11.0611 21.5532L4.4496 19.125L11.0611 16.6967C11.5473 16.5182 11.93 16.1246 12.1036 15.6247ZM16.0865 7.17705C15.5424 5.61007 13.3874 5.61006 12.8432 7.17705L10.2125 14.7519L2.84644 17.4573C1.32268 18.0169 1.32266 20.233 2.84644 20.7926L10.2125 23.498L12.8432 31.0729C13.3874 32.6399 15.5424 32.6399 16.0865 31.0729L18.7173 23.498L26.0834 20.7926C27.6072 20.233 27.6072 18.0169 26.0834 17.4573L18.7173 14.7519L16.0865 7.17705Z" fill="white"/>
</svg>
