<svg width="28" height="27" viewBox="0 0 28 27" fill="none" xmlns="http://www.w3.org/2000/svg">
<rect width="27.4677" height="26.8178" rx="13.4089" fill="#FF8F8F"/>
<path fill-rule="evenodd" clip-rule="evenodd" d="M15.2137 5.91433C15.6606 5.47795 16.3853 5.47795 16.8322 5.91433L23.6991 12.6188C23.9138 12.8283 24.0344 13.1126 24.0344 13.4089C24.0344 13.7053 23.9138 13.9895 23.6991 14.199L16.8322 20.9035C16.3853 21.3399 15.6606 21.3399 15.2137 20.9035C14.7667 20.4671 14.7667 19.7596 15.2137 19.3232L20.1268 14.5263L4.57808 14.5263C3.946 14.5263 3.43359 14.026 3.43359 13.4089C3.43359 12.7918 3.946 12.2915 4.57808 12.2915L20.1268 12.2915L15.2137 7.49458C14.7667 7.0582 14.7667 6.3507 15.2137 5.91433Z" fill="white"/>
</svg>
