<svg width="42" height="27" viewBox="0 0 42 27" fill="none" xmlns="http://www.w3.org/2000/svg">
<path d="M27.8573 24.89C31.9465 22.7982 34.7458 18.5433 34.7458 13.6346C34.7458 6.65671 29.0891 1 22.1112 1C15.1333 1 9.47656 6.65671 9.47656 13.6346C9.47656 14.5565 9.5753 15.4554 9.76279 16.3212" stroke="#283747" stroke-width="2"/>
<path fill-rule="evenodd" clip-rule="evenodd" d="M13.7667 4.07087C13.6397 4.57441 13.1285 4.87966 12.625 4.75265C9.68519 4.01116 7.15706 3.7163 5.26839 3.85976C3.3156 4.00808 2.36176 4.59079 2.03891 5.25017C1.78835 5.76189 1.79789 6.54503 2.35815 7.68337C2.91131 8.80728 3.93083 10.12 5.38587 11.5347C8.28821 14.3566 12.7662 17.433 18.1362 20.0623C23.5062 22.6916 28.6823 24.3421 32.6912 24.9041C34.701 25.1859 36.3631 25.1862 37.5901 24.9339C38.8328 24.6783 39.4573 24.2056 39.7078 23.6939C39.9961 23.105 39.9341 22.1541 39.1169 20.7571C38.3194 19.3939 36.9159 17.8151 34.985 16.1541C34.5913 15.8154 34.5467 15.2217 34.8854 14.828C35.224 14.4343 35.8177 14.3897 36.2114 14.7284C38.2246 16.4602 39.797 18.1954 40.7401 19.8076C41.6634 21.3859 42.1064 23.0717 41.3968 24.5208C40.7774 25.7861 39.4716 26.4669 37.9689 26.7759C36.4504 27.0882 34.5517 27.064 32.4301 26.7665C28.1762 26.1702 22.8076 24.4435 17.3092 21.7513C11.8109 19.0592 7.15463 15.8774 4.07491 12.8831C2.53891 11.3897 1.35543 9.90475 0.670844 8.51381C-0.00663986 7.13729 -0.269574 5.68838 0.349902 4.42318C1.1377 2.8142 3.02213 2.14436 5.12596 1.98456C7.29389 1.8199 10.0407 2.16134 13.0849 2.92916C13.5885 3.05617 13.8937 3.56733 13.7667 4.07087Z" fill="#283747"/>
</svg>
